<svg xmlns="http://www.w3.org/2000/svg" width="116" height="32" fill="none" viewBox="0 0 116 32">
    <path fill="#FF6256" d="M0 16.889V15.11l1.556-.889 1.555.89v1.777l-1.555.889L0 16.888zM0 9.778V8l1.556-.889L3.11 8v1.778l-1.555.889L0 9.777zM6.222 6.222V4.444l1.556-.888 1.555.888v1.778l-1.555.89-1.556-.89zM6.222 13.333v-1.777l1.556-.89 1.555.89v1.777l-1.555.89-1.556-.89zM6.222 20.444v-1.777l1.556-.89 1.555.89v1.777l-1.555.89-1.556-.89zM6.222 27.556v-1.778l1.556-.89 1.555.89v1.778l-1.555.888-1.556-.888zM18.666 6.222V4.444l1.556-.888 1.556.888v1.778l-1.556.89-1.556-.89zM18.666 13.333v-1.777l1.556-.89 1.556.89v1.777l-1.556.89-1.556-.89zM18.666 20.444v-1.777l1.556-.89 1.556.89v1.777l-1.556.89-1.556-.89zM18.666 27.556v-1.778l1.556-.89 1.556.89v1.778l-1.556.888-1.556-.888zM24.889 9.778V8l1.555-.889L28 8v1.778l-1.556.889-1.555-.89zM24.889 16.889V15.11l1.555-.889 1.556.89v1.777l-1.556.889-1.555-.89zM24.889 24v-1.778l1.555-.889 1.556.89V24l-1.556.889L24.89 24zM14 3.556l-1.556-.89V.89L14 0l1.555.889v1.778L14 3.556zM12.444 9.778V8L14 7.111 15.555 8v1.778L14 10.667l-1.556-.89zM12.444 16.889V15.11L14 14.222l1.555.89v1.777L14 17.778l-1.556-.89zM14 24.889L12.444 24v-1.778L14 21.333l1.555.89V24L14 24.889zM12.444 31.111v-1.778L14 28.444l1.555.89v1.777L14 32l-1.556-.889zM0 24v-1.778l1.556-.889 1.555.89V24l-1.555.889L0 24zM60.35 24h3.085V7.314H60.35V24zM66.23 24h3.086V7.314H66.23V24zM72.11 24h2.972V12H72.11v12zM77.801 24h2.88v-7.84c0-1.051.663-1.874 2.08-1.874 1.418 0 2.103.937 2.103 2.034V24h2.72v-7.84c0-1.051.686-1.874 2.08-1.874 1.532 0 2.103.937 2.103 2.034V24h2.72v-8.297c0-2.446-1.76-4.16-4.709-4.16-1.394 0-2.56.709-3.154 1.6h-.045c-.572-.914-1.783-1.6-3.086-1.6s-2.4.686-2.926 1.509h-.046V12h-2.72v12zM109.551 24h2.971V17.35c0-1.943.8-2.766 2.08-2.766.297 0 .617.069.937.183l.457-2.88a2.697 2.697 0 0 0-1.097-.229 2.815 2.815 0 0 0-2.491 1.509l-.174.367L109.551 12v12z"/>
    <path fill="#FF6256" fill-rule="evenodd" d="M102.111 21.715c-1.623 0-2.583-1.006-2.674-2.88h8.137v-.892c0-3.931-2.4-6.4-5.555-6.4-3.154 0-5.6 2.469-5.6 6.4 0 3.931 2.4 6.4 5.738 6.4 2.514 0 4-1.234 5.005-2.697l-2.411-1.378c-.569.727-1.354 1.447-2.64 1.447zm-.092-7.566c-1.508 0-2.468 1.12-2.582 2.468h5.257c-.137-1.531-1.075-2.468-2.675-2.468z" clip-rule="evenodd"/>
    <path fill="#FF6256" d="M40.686 24h3.086V13.764L40.685 12v12zM48.457 8v2.857H36V8h12.457z"/>
    <path fill="#FF6256" fill-rule="evenodd" d="M52.91 21.715c-1.623 0-2.583-1.006-2.674-2.88h8.137v-.892c0-3.931-2.4-6.4-5.554-6.4-3.155 0-5.6 2.469-5.6 6.4 0 3.931 2.4 6.4 5.737 6.4 2.514 0 4-1.234 5.005-2.697l-2.41-1.378c-.57.727-1.355 1.447-2.641 1.447zm-.091-7.566c-1.51 0-2.47 1.12-2.583 2.468h5.257c-.137-1.531-1.075-2.468-2.675-2.468z" clip-rule="evenodd"/>
    <path fill="#FF6256" d="M72.049 9.778V8l1.555-.889L75.16 8v1.778l-1.556.889-1.555-.89z"/>
</svg>
